<svg xmlns="http://www.w3.org/2000/svg" viewBox="0 0 1000 618" width="1000" height="618" role="img" aria-labelledby="title"><title id="title">Every layer of an AI product: interface (Next.js, React, TypeScript), API (Node.js, Express, FastAPI), agents (LangGraph, LangChain), retrieval (RAG, Qdrant, ChromaDB, sqlite-vec), data (PostgreSQL, Prisma, Drizzle, Supabase) and models (Groq, Ollama) — each shipped in a real project.</title><defs><style>@keyframes kd9483dc{0%{stroke:#252936}3.33%{stroke:#252936}5%{stroke:#5B6CFF}11.67%{stroke:#252936}85%{stroke:#252936}86.67%{stroke:#FF3B55}93.33%{stroke:#252936}100%{stroke:#252936}}@keyframes k63e0e12{0%{stroke:#252936}10.33%{stroke:#252936}12%{stroke:#5B6CFF}18.67%{stroke:#252936}78%{stroke:#252936}79.67%{stroke:#FF3B55}86.33%{stroke:#252936}100%{stroke:#252936}}@keyframes kbbb3b55{0%{stroke:#252936}17.33%{stroke:#252936}19%{stroke:#5B6CFF}25.67%{stroke:#252936}71%{stroke:#252936}72.67%{stroke:#FF3B55}79.33%{stroke:#252936}100%{stroke:#252936}}@keyframes k90729d2{0%{stroke:#252936}24.33%{stroke:#252936}26%{stroke:#5B6CFF}32.67%{stroke:#252936}64%{stroke:#252936}65.67%{stroke:#FF3B55}72.33%{stroke:#252936}100%{stroke:#252936}}@keyframes k99d0c00{0%{stroke:#252936}31.33%{stroke:#252936}33%{stroke:#5B6CFF}39.67%{stroke:#252936}57%{stroke:#252936}58.67%{stroke:#FF3B55}65.33%{stroke:#252936}100%{stroke:#252936}}@keyframes kb3138a9{0%{stroke:#252936}38.33%{stroke:#252936}40%{stroke:#5B6CFF}46.67%{stroke:#252936}50%{stroke:#252936}51.67%{stroke:#FF3B55}58.33%{stroke:#252936}100%{stroke:#252936}}@keyframes k80e7839{0%{transform:translate(60px,127px);opacity:0}2.5%{transform:translate(60px,127px);opacity:1}4.17%{transform:translate(60px,127px);opacity:1}11.17%{transform:translate(60px,209px);opacity:1}18.17%{transform:translate(60px,291px);opacity:1}25.17%{transform:translate(60px,373px);opacity:1}32.17%{transform:translate(60px,455px);opacity:1}39.17%{transform:translate(60px,537px);opacity:1}43.33%{transform:translate(60px,537px);opacity:0}100%{transform:translate(60px,537px);opacity:0}}@keyframes k2dde61a{0%{transform:translate(60px,537px);opacity:0}48.33%{transform:translate(60px,537px);opacity:0}50.83%{transform:translate(60px,537px);opacity:1}57.83%{transform:translate(60px,455px);opacity:1}64.83%{transform:translate(60px,373px);opacity:1}71.83%{transform:translate(60px,291px);opacity:1}78.83%{transform:translate(60px,209px);opacity:1}85.83%{transform:translate(60px,127px);opacity:1}90%{transform:translate(60px,127px);opacity:0}100%{transform:translate(60px,127px);opacity:0}}@keyframes k113def8{0%{transform:translate(60px,537px);opacity:0}2%{transform:translate(60px,537px);opacity:0}50.33%{transform:translate(60px,537px);opacity:0}52.83%{transform:translate(60px,537px);opacity:1}59.83%{transform:translate(60px,455px);opacity:1}66.83%{transform:translate(60px,373px);opacity:1}73.83%{transform:translate(60px,291px);opacity:1}80.83%{transform:translate(60px,209px);opacity:1}87.83%{transform:translate(60px,127px);opacity:1}92%{transform:translate(60px,127px);opacity:0}100%{transform:translate(60px,127px);opacity:0}}@keyframes kfbb0567{0%{transform:translate(60px,537px);opacity:0}4%{transform:translate(60px,537px);opacity:0}52.33%{transform:translate(60px,537px);opacity:0}54.83%{transform:translate(60px,537px);opacity:1}61.83%{transform:translate(60px,455px);opacity:1}68.83%{transform:translate(60px,373px);opacity:1}75.83%{transform:translate(60px,291px);opacity:1}82.83%{transform:translate(60px,209px);opacity:1}89.83%{transform:translate(60px,127px);opacity:1}94%{transform:translate(60px,127px);opacity:0}100%{transform:translate(60px,127px);opacity:0}}@media (prefers-reduced-motion:reduce){*{animation:none!important}}</style><path id="display-O" d="M359 14Q287 14 230 -8Q173 -31 132 -74Q92 -118 70 -182Q49 -245 49 -327Q49 -444 90 -520Q131 -597 202 -636Q274 -674 364 -674Q434 -674 491 -652Q548 -629 588 -586Q629 -542 651 -478Q673 -413 673 -330Q673 -245 651 -181Q629 -117 588 -74Q546 -30 488 -8Q430 14 359 14ZM363 -101Q416 -101 452 -127Q488 -153 507 -202Q526 -251 526 -322Q526 -396 506 -448Q487 -500 450 -528Q413 -555 360 -555Q308 -555 272 -528Q235 -502 216 -452Q196 -402 196 -328Q196 -274 208 -232Q219 -189 240 -160Q261 -131 292 -116Q323 -101 363 -101Z"/><path id="display-n" d="M66 0V-318V-525H184L183 -368H203Q216 -425 240 -463Q264 -501 300 -520Q337 -539 387 -539Q478 -539 526 -475Q573 -411 573 -274V0H428V-258Q428 -342 404 -380Q379 -419 332 -419Q292 -419 265 -394Q238 -369 224 -328Q211 -288 210 -238V0Z"/><path id="display-e" d="M310 14Q245 14 194 -4Q144 -22 109 -56Q74 -90 56 -140Q37 -190 37 -253Q37 -315 54 -368Q72 -420 106 -458Q140 -497 189 -518Q238 -539 300 -539Q360 -539 407 -520Q454 -500 486 -461Q517 -422 532 -366Q546 -309 542 -236L130 -232V-311L459 -314L408 -274Q415 -327 401 -361Q387 -395 360 -411Q334 -427 302 -427Q264 -427 235 -407Q206 -387 190 -348Q174 -310 174 -256Q174 -171 212 -131Q249 -91 310 -91Q338 -91 358 -98Q377 -106 390 -118Q402 -130 410 -145Q417 -160 422 -175L547 -148Q538 -111 520 -82Q503 -52 474 -30Q445 -9 404 2Q364 14 310 14Z"/><path id="display-g" d="M274 183Q188 183 132 170Q77 156 51 130Q25 104 25 65Q25 19 62 -10Q98 -39 169 -45V-65Q115 -65 86 -76Q57 -88 57 -117Q57 -145 86 -167Q114 -189 180 -202V-222Q118 -226 83 -262Q48 -298 48 -355Q48 -405 76 -444Q104 -484 160 -508Q215 -531 296 -531H562V-421L397 -444V-421Q461 -412 490 -389Q518 -366 518 -325Q518 -284 491 -253Q464 -222 414 -204Q365 -187 296 -187Q283 -187 268 -188Q253 -189 218 -193Q199 -179 188 -168Q178 -158 178 -149Q178 -142 186 -137Q193 -132 206 -130Q218 -128 231 -128H381Q401 -128 433 -126Q465 -123 497 -110Q529 -97 551 -68Q573 -40 573 13Q573 71 540 109Q508 147 442 165Q375 183 274 183ZM290 68Q351 68 385 62Q419 55 434 40Q448 26 448 4Q448 -16 440 -27Q431 -38 418 -42Q404 -47 390 -48Q377 -50 367 -50H241Q199 -46 180 -28Q162 -9 162 15Q162 37 176 48Q190 59 218 64Q247 68 290 68ZM288 -262Q336 -262 360 -286Q384 -309 384 -347Q384 -387 360 -413Q335 -439 288 -439Q242 -439 216 -414Q190 -388 190 -348Q190 -323 202 -304Q213 -284 235 -273Q257 -262 288 -262Z"/><path id="display-i" d="M66 0V-525H210V0ZM139 -604Q97 -604 74 -622Q52 -639 52 -673Q52 -708 74 -726Q97 -744 139 -744Q182 -744 204 -726Q227 -708 227 -673Q227 -640 204 -622Q182 -604 139 -604Z"/><path id="display-r" d="M66 0V-254V-525H185L186 -346H205Q213 -413 232 -455Q252 -497 287 -517Q322 -537 374 -537Q383 -537 394 -536Q404 -536 418 -533L412 -380Q397 -387 379 -390Q361 -393 347 -393Q308 -393 280 -375Q252 -357 234 -324Q217 -290 211 -242V0Z"/><path id="display-comma" d="M4 132Q22 86 30 46Q37 6 38 -34Q40 -75 40 -123H172Q172 -55 164 -6Q156 42 142 76Q129 109 115 132Z"/><path id="display-v" d="M186 0 11 -524H170L281 -114H297L408 -524H561L385 0Z"/><path id="display-y" d="M265 182Q225 182 184 174Q142 167 106 152Q69 136 43 112L84 -11Q116 22 164 38Q212 55 259 55Q312 55 348 34Q383 12 402 -32Q420 -77 423 -144L429 -235H407Q397 -169 374 -127Q352 -85 318 -66Q283 -46 236 -46Q179 -46 140 -75Q101 -104 82 -162Q62 -220 62 -305V-525H206V-340Q206 -247 227 -206Q248 -165 291 -165Q314 -165 333 -178Q352 -190 366 -214Q379 -238 386 -272Q394 -307 394 -351V-525H538V-139Q538 -76 527 -24Q516 27 494 66Q473 104 440 130Q407 156 364 169Q320 182 265 182Z"/><path id="display-l" d="M66 0V-715H208V0Z"/><path id="display-a" d="M189 14Q145 14 111 -4Q77 -21 58 -54Q39 -87 39 -136Q39 -179 56 -208Q72 -237 104 -255Q136 -273 183 -285Q230 -297 290 -306Q322 -311 342 -316Q363 -320 373 -330Q383 -341 383 -361Q383 -389 363 -409Q343 -429 300 -429Q271 -429 246 -419Q222 -409 204 -389Q187 -369 179 -338L52 -377Q64 -418 86 -448Q109 -478 141 -498Q173 -519 214 -529Q255 -539 303 -539Q380 -539 428 -514Q477 -490 501 -438Q525 -387 525 -306V-216Q525 -181 526 -145Q528 -109 530 -72Q533 -36 536 0H409Q405 -25 402 -58Q398 -90 396 -123H378Q364 -85 338 -54Q312 -23 274 -4Q237 14 189 14ZM250 -90Q269 -90 288 -97Q308 -104 326 -116Q345 -129 360 -148Q376 -167 386 -191L384 -275L407 -270Q389 -257 365 -250Q341 -242 316 -238Q290 -234 265 -229Q240 -224 220 -216Q201 -208 190 -194Q178 -181 178 -157Q178 -126 198 -108Q218 -90 250 -90Z"/><path id="display-o" d="M304 14Q225 14 165 -18Q105 -49 71 -110Q37 -172 37 -264Q37 -356 72 -417Q106 -478 166 -508Q227 -539 304 -539Q383 -539 444 -508Q504 -477 538 -416Q573 -354 573 -262Q573 -169 538 -108Q502 -46 442 -16Q381 14 304 14ZM309 -93Q348 -93 374 -111Q401 -129 414 -166Q428 -202 428 -254Q428 -309 414 -348Q399 -386 371 -406Q343 -427 300 -427Q263 -427 236 -410Q209 -392 195 -356Q181 -319 181 -266Q181 -181 215 -137Q249 -93 309 -93Z"/><path id="display-f" d="M106 0V-336H23V-442L163 -436V-455Q128 -463 106 -480Q83 -498 73 -523Q63 -548 63 -576Q63 -619 85 -650Q107 -682 147 -700Q187 -717 241 -717Q287 -717 324 -706Q362 -694 385 -677L376 -547Q352 -564 322 -575Q292 -586 265 -586Q235 -586 216 -570Q196 -554 196 -518Q196 -493 206 -478Q217 -464 232 -458Q248 -451 263 -449H383V-336H246V0Z"/><path id="display-A" d="M18 0 244 -660H454L680 0H524L357 -546H342L174 0ZM145 -130V-228H574V-130Z"/><path id="display-I" d="M73 0V-660H220V0Z"/><path id="display-p" d="M66 168V-258V-525H185L186 -379L204 -378Q213 -431 236 -467Q258 -503 294 -521Q330 -539 377 -539Q447 -539 497 -504Q547 -470 574 -408Q600 -345 600 -260Q600 -181 576 -120Q552 -58 504 -22Q457 14 386 14Q336 14 302 -5Q267 -24 244 -58Q222 -93 207 -141H188Q194 -114 199 -86Q204 -58 207 -32Q210 -5 210 20V168ZM336 -101Q372 -101 397 -121Q422 -141 436 -177Q449 -213 449 -259Q449 -309 435 -344Q421 -380 395 -400Q369 -420 333 -420Q301 -420 278 -406Q255 -392 240 -369Q224 -346 217 -320Q210 -293 210 -269V-250Q210 -231 215 -210Q220 -190 231 -170Q242 -151 257 -136Q272 -120 292 -110Q312 -101 336 -101Z"/><path id="display-d" d="M257 14Q191 14 142 -20Q92 -54 65 -116Q38 -178 38 -263Q38 -343 62 -405Q86 -467 133 -502Q180 -537 250 -537Q301 -537 336 -518Q371 -499 394 -462Q416 -426 429 -375H452Q445 -407 440 -438Q434 -468 431 -496Q428 -524 428 -545V-715H572V-258V0H452V-152H432Q421 -96 398 -59Q375 -22 340 -4Q304 14 257 14ZM305 -104Q338 -104 361 -118Q384 -132 399 -154Q414 -177 421 -204Q428 -230 428 -253V-272Q428 -291 422 -312Q417 -332 407 -352Q397 -372 382 -388Q367 -403 347 -412Q327 -421 303 -421Q267 -421 242 -401Q217 -381 203 -346Q189 -310 189 -263Q189 -215 204 -179Q218 -143 244 -124Q270 -104 305 -104Z"/><path id="display-u" d="M244 14Q152 14 106 -48Q59 -111 59 -239V-525H203V-257Q203 -180 226 -142Q249 -105 296 -105Q324 -105 345 -119Q366 -133 381 -158Q396 -183 404 -217Q411 -251 412 -290V-525H556V-214V0H440L439 -164H421Q406 -102 384 -62Q361 -23 326 -4Q292 14 244 14Z"/><path id="display-c" d="M309 14Q241 14 190 -6Q139 -26 105 -62Q71 -98 54 -148Q37 -197 37 -256Q37 -318 54 -370Q72 -421 106 -459Q140 -497 190 -518Q240 -539 304 -539Q368 -539 416 -518Q463 -497 492 -460Q522 -422 533 -371L400 -328Q397 -359 384 -382Q370 -404 348 -416Q325 -427 297 -427Q268 -427 247 -416Q226 -404 212 -382Q197 -361 190 -330Q182 -300 182 -262Q182 -208 196 -170Q211 -133 240 -114Q268 -94 310 -94Q350 -94 374 -110Q398 -125 410 -150Q421 -174 424 -200L550 -172Q545 -133 528 -99Q512 -65 482 -40Q452 -15 410 0Q367 14 309 14Z"/><path id="display-t" d="M261 12Q173 12 132 -34Q90 -81 90 -183V-412H14L16 -525H69Q100 -525 115 -534Q130 -543 133 -567L146 -642H228V-525H361V-408H228V-189Q228 -153 245 -137Q262 -121 297 -121Q316 -121 334 -125Q351 -129 364 -138V-4Q333 6 307 9Q281 12 261 12Z"/><path id="mono-arrowdown" d="M571 -395V-289L300 -18L29 -288V-394L299 -124ZM261 -694H339V-68H261Z"/><path id="mono-r" d="M228 0V-530H298L306 -396L298 -398Q308 -466 342 -498Q375 -530 431 -530H540V-454H432Q393 -454 366 -438Q340 -423 326 -394Q312 -364 312 -320V0ZM90 0V-74H480V0ZM90 -456V-530H274V-456Z"/><path id="mono-e" d="M309 12Q234 12 180 -22Q125 -56 96 -118Q66 -181 66 -265Q66 -349 96 -411Q125 -473 178 -508Q232 -542 305 -542Q374 -542 427 -510Q480 -477 510 -415Q540 -353 540 -264V-239H154Q159 -154 200 -111Q240 -68 309 -68Q361 -68 394 -92Q428 -117 441 -157L531 -150Q510 -79 452 -34Q393 12 309 12ZM154 -313H448Q442 -390 403 -426Q364 -462 305 -462Q244 -462 204 -424Q165 -387 154 -313Z"/><path id="mono-q" d="M520 150H436V-114L448 -100Q439 -66 414 -41Q390 -16 354 -2Q319 12 278 12Q199 12 148 -27Q98 -66 74 -129Q50 -192 50 -265Q50 -338 74 -401Q98 -464 148 -503Q199 -542 278 -542Q340 -542 386 -510Q433 -478 452 -416L440 -410L442 -530H520ZM286 -68Q333 -68 366 -90Q400 -112 418 -156Q436 -200 436 -265Q436 -330 418 -374Q399 -418 366 -440Q332 -462 286 -462Q217 -462 178 -410Q138 -358 138 -265Q138 -172 178 -120Q217 -68 286 -68Z"/><path id="mono-u" d="M263 12Q184 12 137 -42Q90 -95 90 -189V-530H174V-212Q174 -135 202 -98Q229 -62 286 -62Q348 -62 384 -102Q420 -143 420 -214V-530H504V0H424V-131L437 -124Q421 -59 376 -24Q331 12 263 12Z"/><path id="mono-s" d="M310 12Q241 12 191 -12Q141 -36 112 -76Q84 -117 80 -167L168 -173Q176 -124 212 -96Q247 -68 310 -68Q369 -68 402 -85Q434 -102 434 -138Q434 -161 423 -176Q412 -191 382 -202Q352 -212 294 -222Q217 -236 174 -256Q130 -277 112 -308Q94 -339 94 -382Q94 -428 117 -464Q140 -500 185 -521Q230 -542 295 -542Q361 -542 406 -518Q450 -495 476 -456Q502 -418 510 -372L422 -366Q416 -394 400 -416Q383 -437 356 -450Q330 -462 294 -462Q236 -462 208 -439Q180 -416 180 -382Q180 -355 193 -339Q206 -323 235 -314Q264 -304 312 -296Q394 -283 439 -262Q484 -242 502 -212Q520 -182 520 -138Q520 -91 492 -58Q465 -24 418 -6Q370 12 310 12Z"/><path id="mono-t" d="M378 0Q301 0 263 -36Q225 -72 225 -146V-654H309V-146Q309 -109 326 -92Q343 -74 378 -74H520V0ZM50 -456V-530H520V-456Z"/><path id="mono-arrowup" d="M571 -317 299 -588 29 -318V-424L300 -694L571 -423ZM261 -18V-644H339V-18Z"/><path id="mono-o" d="M300 12Q227 12 172 -22Q118 -56 88 -118Q58 -181 58 -265Q58 -350 88 -412Q118 -474 172 -508Q227 -542 300 -542Q373 -542 428 -508Q482 -474 512 -412Q542 -350 542 -265Q542 -181 512 -118Q482 -56 428 -22Q373 12 300 12ZM300 -68Q373 -68 414 -120Q454 -173 454 -265Q454 -357 414 -410Q373 -462 300 -462Q227 -462 186 -410Q146 -357 146 -265Q146 -173 186 -120Q227 -68 300 -68Z"/><path id="mono-k" d="M90 0V-710H174V-245L432 -530H544L335 -305L554 0H452L278 -248L174 -138V0Z"/><path id="mono-n" d="M84 0V-530H161L164 -395L154 -404Q164 -451 190 -482Q217 -512 254 -527Q291 -542 332 -542Q393 -542 434 -515Q474 -488 495 -442Q516 -397 516 -341V0H432V-317Q432 -391 403 -430Q374 -468 314 -468Q273 -468 240 -450Q207 -433 188 -400Q168 -366 168 -317V0Z"/><path id="mono-bold-zero" d="M131 -115 389 -602 469 -595 211 -108ZM300 16Q220 16 162 -28Q105 -73 74 -156Q44 -239 44 -354Q44 -469 74 -552Q105 -636 162 -681Q220 -726 300 -726Q380 -726 438 -681Q495 -636 526 -552Q556 -469 556 -354Q556 -239 526 -156Q495 -73 438 -28Q380 16 300 16ZM300 -110Q335 -110 359 -137Q383 -164 396 -218Q410 -273 410 -354Q410 -436 396 -491Q383 -546 359 -573Q335 -600 300 -600Q266 -600 242 -573Q217 -546 204 -491Q190 -436 190 -354Q190 -273 204 -218Q217 -164 242 -137Q266 -110 300 -110Z"/><path id="mono-bold-one" d="M252 0V-466H78V-584H156Q196 -584 222 -596Q247 -609 258 -636Q270 -664 270 -710H394V0ZM48 0V-128H552V0Z"/><path id="mono-bold-I" d="M74 0V-128H229V-582H74V-710H526V-582H371V-128H526V0Z"/><path id="mono-bold-N" d="M64 0V-710H203L400 -251V-710H536V0H397L200 -459V0Z"/><path id="mono-bold-T" d="M229 0V-582H40V-710H560V-582H371V0Z"/><path id="mono-bold-E" d="M84 0V-710H528V-582H226V-419H516V-293H226V-128H536V0Z"/><path id="mono-bold-R" d="M62 0V-710H291Q406 -710 470 -652Q535 -595 535 -497Q535 -444 513 -405Q491 -366 453 -344Q415 -322 370 -318L366 -331Q445 -330 484 -298Q523 -267 529 -198L546 0H402L390 -160Q387 -200 376 -221Q365 -242 342 -250Q319 -258 281 -258H204V0ZM204 -386H286Q336 -386 362 -412Q389 -438 389 -484Q389 -531 362 -556Q336 -582 286 -582H204Z"/><path id="mono-bold-F" d="M94 0V-710H546V-582H146L236 -669V-344L146 -410H528V-285H146L236 -350V0Z"/><path id="mono-bold-A" d="M19 0 213 -710H387L581 0H438L300 -538L162 0ZM150 -151 186 -275H414L450 -151Z"/><path id="mono-bold-C" d="M304 16Q218 16 157 -28Q96 -73 64 -156Q32 -239 32 -354Q32 -469 64 -552Q96 -636 157 -681Q218 -726 304 -726Q408 -726 475 -658Q542 -589 561 -463L415 -456Q404 -526 375 -563Q346 -600 304 -600Q264 -600 236 -572Q208 -543 193 -488Q178 -433 178 -354Q178 -276 193 -222Q208 -167 236 -138Q264 -110 304 -110Q347 -110 378 -150Q408 -189 418 -264L563 -257Q546 -127 478 -56Q411 16 304 16Z"/><path id="mono-N" d="M70 0V-710H192L444 -98V-710H530V0H408L156 -612V0Z"/><path id="mono-x" d="M54 0 249 -272 64 -530H162L301 -330L437 -530H537L353 -270L546 0H448L301 -214L154 0Z"/><path id="mono-period" d="M238 0V-122H362V0Z"/><path id="mono-j" d="M110 150V76H278Q317 76 336 59Q356 42 356 -6V-530H440V0Q440 73 404 112Q368 150 288 150ZM120 -456V-530H404V-456ZM351 -613V-711H439V-613Z"/><path id="mono-periodcentered" d="M238 -243V-365H362V-243Z"/><path id="mono-R" d="M70 0V-710H286Q398 -710 463 -654Q528 -597 528 -498Q528 -448 505 -410Q482 -371 446 -349Q410 -327 372 -324L368 -336Q439 -332 474 -302Q510 -272 516 -204L534 0H448L431 -193Q428 -226 416 -246Q403 -267 376 -276Q350 -286 304 -286H156V0ZM156 -370H286Q360 -370 399 -404Q438 -437 438 -498Q438 -560 399 -593Q360 -626 286 -626H156Z"/><path id="mono-a" d="M230 12Q180 12 140 -6Q100 -24 77 -56Q54 -89 54 -132Q54 -200 94 -238Q135 -275 222 -292L400 -328Q400 -396 370 -429Q339 -462 282 -462Q227 -462 196 -438Q165 -413 153 -367L64 -374Q79 -449 136 -496Q192 -542 282 -542Q378 -542 431 -484Q484 -427 484 -326V-106Q484 -88 492 -81Q500 -74 516 -74H550V0Q544 1 531 2Q518 2 506 2Q472 2 448 -9Q425 -20 413 -44Q401 -69 400 -108H416Q409 -74 382 -46Q356 -19 316 -4Q276 12 230 12ZM238 -62Q292 -62 328 -80Q364 -99 382 -132Q400 -166 400 -210V-256L238 -224Q184 -214 163 -194Q142 -173 142 -140Q142 -103 168 -82Q193 -62 238 -62Z"/><path id="mono-c" d="M314 12Q240 12 185 -22Q130 -56 100 -118Q70 -181 70 -265Q70 -349 100 -411Q130 -473 185 -508Q240 -542 314 -542Q373 -542 419 -520Q465 -499 495 -458Q525 -417 536 -358L448 -352Q436 -405 400 -434Q365 -462 314 -462Q241 -462 200 -410Q158 -357 158 -265Q158 -173 200 -120Q241 -68 314 -68Q365 -68 402 -98Q440 -128 452 -188L540 -182Q529 -123 498 -80Q467 -36 420 -12Q373 12 314 12Z"/><path id="mono-T" d="M257 0V-626H40V-710H560V-626H343V0Z"/><path id="mono-y" d="M138 150V76H199Q227 76 240 68Q254 59 261 40L280 -10H251L54 -530H146L307 -88L458 -530H550L335 67Q320 110 290 130Q260 150 207 150Z"/><path id="mono-p" d="M80 150V-530H158L160 -410L148 -416Q168 -478 214 -510Q261 -542 322 -542Q401 -542 452 -503Q502 -464 526 -401Q550 -338 550 -265Q550 -192 526 -129Q502 -66 452 -27Q401 12 322 12Q281 12 246 -2Q210 -16 186 -41Q161 -66 152 -100L164 -114V150ZM314 -68Q383 -68 422 -120Q462 -172 462 -265Q462 -358 422 -410Q383 -462 314 -462Q268 -462 234 -440Q201 -418 182 -374Q164 -330 164 -265Q164 -200 182 -156Q200 -112 234 -90Q268 -68 314 -68Z"/><path id="mono-S" d="M311 16Q236 16 178 -15Q120 -46 85 -100Q50 -155 44 -227L134 -233Q141 -180 164 -143Q188 -106 226 -87Q263 -68 313 -68Q363 -68 397 -80Q431 -93 448 -118Q466 -142 466 -176Q466 -210 450 -236Q435 -261 392 -283Q350 -305 267 -328Q193 -349 148 -374Q102 -399 82 -435Q61 -471 61 -524Q61 -584 90 -630Q118 -675 171 -700Q224 -726 297 -726Q370 -726 422 -696Q474 -667 504 -616Q535 -565 543 -500L453 -494Q447 -537 428 -570Q409 -604 376 -623Q343 -642 295 -642Q229 -642 190 -610Q151 -579 151 -528Q151 -495 166 -474Q180 -452 217 -436Q254 -419 321 -400Q408 -376 460 -346Q511 -316 534 -274Q556 -233 556 -174Q556 -118 525 -75Q494 -32 439 -8Q384 16 311 16Z"/><path id="mono-i" d="M293 0V-530H377V0ZM80 0V-74H560V0ZM90 -456V-530H377V-456ZM285 -613V-711H373V-613Z"/><path id="mono-l" d="M273 0V-568Q273 -600 255 -618Q237 -636 205 -636H80V-710H209Q282 -710 320 -672Q357 -635 357 -562V0ZM60 0V-74H540V0Z"/><path id="mono-w" d="M125 0 20 -530H112L181 -88L259 -456H341L419 -88L488 -530H580L476 0H370L300 -334L230 0Z"/><path id="mono-d" d="M267 12Q197 12 146 -22Q95 -56 68 -118Q40 -180 40 -265Q40 -350 68 -412Q95 -474 146 -508Q197 -542 267 -542Q323 -542 365 -516Q407 -489 426 -456V-710H510V0H434L431 -80Q409 -37 366 -12Q323 12 267 12ZM272 -68Q320 -68 354 -92Q389 -116 408 -160Q426 -205 426 -265Q426 -327 408 -371Q389 -415 354 -438Q319 -462 270 -462Q205 -462 166 -410Q128 -357 128 -265Q128 -174 166 -121Q205 -68 272 -68Z"/><path id="mono-E" d="M90 0V-710H522V-626H176V-397H510V-315H176V-84H530V0Z"/><path id="mono-m" d="M40 0V-530H117L120 -412L110 -414Q119 -473 148 -508Q178 -542 224 -542Q271 -542 296 -508Q322 -474 328 -408H318Q327 -470 358 -506Q390 -542 438 -542Q502 -542 531 -498Q560 -454 560 -352V0H476V-340Q476 -411 461 -440Q446 -468 414 -468Q393 -468 377 -454Q361 -441 352 -412Q342 -383 342 -338V0H258V-340Q258 -408 244 -438Q229 -468 196 -468Q175 -468 159 -454Q143 -441 134 -412Q124 -383 124 -338V0Z"/><path id="mono-g" d="M297 162Q240 162 194 143Q148 124 117 89Q86 54 75 8L163 2Q175 39 206 60Q236 82 297 82Q369 82 408 53Q446 24 446 -34V-120Q427 -78 385 -53Q343 -28 291 -28Q224 -28 172 -61Q119 -94 90 -152Q60 -210 60 -285Q60 -361 89 -418Q118 -476 170 -509Q221 -542 287 -542Q343 -542 388 -516Q432 -490 450 -446V-530H530V-36Q530 26 502 70Q474 115 422 138Q370 162 297 162ZM295 -108Q363 -108 404 -156Q445 -203 446 -285Q447 -340 428 -380Q410 -419 376 -440Q341 -462 295 -462Q225 -462 186 -414Q148 -367 148 -285Q148 -203 188 -156Q227 -108 295 -108Z"/><path id="mono-H" d="M60 0V-710H146V-365L102 -399H498L454 -365V-710H540V0H454V-349L498 -315H102L146 -349V0Z"/><path id="mono-I" d="M80 0V-84H257V-626H80V-710H520V-626H343V-84H520V0Z"/><path id="mono-P" d="M90 0V-710H306Q380 -710 435 -684Q490 -658 520 -610Q550 -561 550 -493Q550 -425 520 -376Q490 -328 435 -302Q380 -276 306 -276H176V0ZM176 -360H296Q380 -360 420 -394Q460 -429 460 -493Q460 -558 420 -592Q380 -626 296 -626H176Z"/><path id="mono-D" d="M90 0V-710H258Q350 -710 418 -668Q487 -627 524 -548Q562 -468 562 -354Q562 -240 524 -161Q487 -82 418 -41Q350 0 258 0ZM176 -84H253Q357 -84 414 -152Q472 -219 472 -354Q472 -489 414 -558Q357 -626 253 -626H176Z"/><path id="body-M" d="M86 0V-720H212L472 -26H434L692 -720H820V0H739V-677H750L499 0H401L150 -671H161V0Z"/><path id="body-a" d="M393 0Q389 -17 388 -39Q386 -61 386 -95H381V-339Q381 -397 354 -424Q328 -452 269 -452Q211 -452 176 -428Q142 -405 138 -362H61Q66 -436 123 -478Q180 -520 272 -520Q367 -520 413 -475Q459 -430 459 -340V-95Q459 -73 462 -50Q465 -26 470 0ZM218 10Q139 10 92 -28Q46 -67 46 -134Q46 -201 92 -238Q138 -275 226 -290L404 -320V-254L238 -228Q182 -219 153 -198Q124 -177 124 -137Q124 -98 150 -78Q177 -58 229 -58Q296 -58 338 -88Q381 -119 381 -168L394 -97Q378 -46 332 -18Q285 10 218 10Z"/><path id="body-n" d="M80 0V-510H155V-390H160V0ZM445 0V-334Q445 -392 416 -421Q387 -450 330 -450Q280 -450 242 -428Q203 -406 182 -367Q160 -328 160 -276L147 -397Q173 -454 226 -487Q280 -520 348 -520Q428 -520 476 -474Q525 -429 525 -355V0Z"/><path id="body-d" d="M451 0V-119L461 -116Q442 -58 392 -24Q341 10 271 10Q202 10 150 -23Q99 -56 70 -115Q42 -174 42 -253Q42 -333 71 -393Q100 -453 152 -486Q204 -519 274 -519Q346 -519 395 -484Q444 -449 462 -385L446 -383V-720H526V0ZM286 -60Q363 -60 406 -112Q450 -165 450 -256Q450 -345 406 -397Q362 -449 286 -449Q210 -449 167 -397Q124 -345 124 -253Q124 -163 167 -112Q210 -60 286 -60Z"/><path id="body-t" d="M284 9Q199 9 160 -30Q122 -68 122 -141V-629L202 -659V-142Q202 -99 224 -79Q246 -59 296 -59Q316 -59 330 -62Q345 -64 354 -68V0Q344 4 326 6Q307 9 284 9ZM17 -442V-510H354V-442Z"/><path id="body-e" d="M289 10Q216 10 160 -24Q104 -59 72 -119Q40 -179 40 -257Q40 -335 72 -394Q103 -454 160 -487Q217 -520 291 -520Q362 -520 414 -489Q467 -458 496 -402Q524 -346 524 -270Q524 -260 524 -251Q523 -242 521 -231H100V-298H472L446 -261Q446 -353 406 -402Q365 -452 291 -452Q215 -452 168 -400Q122 -347 122 -258Q122 -167 168 -112Q215 -58 293 -58Q342 -58 379 -80Q416 -101 433 -141H509Q484 -71 426 -30Q367 10 289 10Z"/><path id="body-O" d="M393 10Q318 10 256 -18Q193 -45 147 -96Q101 -146 76 -214Q50 -282 50 -363Q50 -470 94 -553Q138 -636 216 -683Q293 -730 392 -730Q493 -730 570 -683Q648 -636 692 -553Q736 -470 736 -362Q736 -281 710 -213Q685 -145 639 -95Q593 -45 530 -18Q467 10 393 10ZM392 -64Q469 -64 528 -102Q586 -141 619 -209Q652 -277 652 -364Q652 -450 620 -516Q587 -582 528 -619Q470 -656 392 -656Q314 -656 256 -619Q198 -582 166 -516Q134 -451 134 -364Q134 -276 166 -208Q199 -141 257 -102Q315 -64 392 -64Z"/><path id="body-S" d="M330 9Q204 9 130 -53Q55 -115 42 -230H122Q133 -147 185 -105Q237 -63 329 -63Q407 -63 446 -92Q486 -122 486 -179Q486 -228 459 -257Q432 -286 375 -305L254 -347Q162 -379 118 -424Q74 -470 74 -540Q74 -598 103 -640Q132 -683 185 -707Q238 -731 308 -731Q416 -731 481 -674Q546 -618 556 -514H476Q463 -589 422 -624Q382 -659 306 -659Q234 -659 194 -630Q154 -601 154 -548Q154 -503 182 -476Q210 -449 269 -429L398 -384Q482 -355 524 -306Q566 -256 566 -180Q566 -90 504 -40Q443 9 330 9Z"/><path id="body-periodcentered" d="M0 -335V-438H103V-335Z"/><path id="body-C" d="M391 10Q317 10 254 -18Q192 -45 146 -94Q100 -144 75 -212Q50 -279 50 -360Q50 -441 75 -508Q100 -576 146 -626Q191 -675 254 -702Q316 -730 390 -730Q471 -730 536 -697Q600 -664 642 -604Q683 -544 693 -464H611Q599 -553 540 -604Q482 -656 391 -656Q314 -656 256 -618Q198 -581 166 -514Q134 -448 134 -360Q134 -272 166 -206Q198 -139 256 -102Q314 -64 390 -64Q483 -64 542 -116Q602 -168 613 -256H695Q685 -176 644 -116Q602 -56 538 -23Q473 10 391 10Z"/><path id="body-l" d="M80 0V-720H160V0Z"/><path id="body-u" d="M246 10Q196 10 157 -10Q118 -31 96 -68Q74 -106 74 -155V-510H154V-176Q154 -118 182 -89Q211 -60 264 -60Q312 -60 349 -82Q386 -104 408 -144Q429 -183 429 -234L442 -113Q417 -56 364 -23Q311 10 246 10ZM434 0V-120H429V-510H509V0Z"/><path id="body-s" d="M253 10Q159 10 103 -34Q47 -77 39 -157H116Q123 -108 159 -82Q195 -56 255 -56Q308 -56 338 -76Q368 -96 368 -133Q368 -159 351 -178Q334 -198 283 -211L201 -232Q131 -250 96 -288Q61 -325 61 -377Q61 -443 110 -482Q159 -520 243 -520Q326 -520 378 -480Q430 -440 437 -369H360Q353 -410 322 -432Q291 -454 240 -454Q191 -454 164 -436Q137 -417 137 -383Q137 -357 156 -338Q176 -319 222 -306L302 -284Q373 -265 409 -226Q445 -187 445 -132Q445 -65 394 -28Q343 10 253 10Z"/><path id="body-G" d="M410 10Q300 10 219 -35Q138 -80 94 -162Q50 -243 50 -354Q50 -465 94 -550Q137 -634 214 -682Q292 -730 393 -730Q472 -730 536 -700Q601 -670 642 -617Q684 -564 693 -494H611Q601 -568 542 -612Q484 -656 396 -656Q317 -656 258 -618Q199 -581 166 -514Q134 -447 134 -356Q134 -265 168 -200Q201 -134 264 -99Q328 -64 417 -64Q478 -64 526 -82Q574 -99 613 -136L695 -106Q640 -48 568 -19Q497 10 410 10ZM613 -106V-339L644 -308H416V-380H695V-106Z"/><path id="body-r" d="M80 0V-510H155V-380H160V0ZM160 -266 147 -387Q165 -452 211 -486Q257 -520 317 -520Q342 -520 351 -516V-439Q346 -441 337 -442Q328 -442 315 -442Q239 -442 200 -396Q160 -351 160 -266Z"/><path id="body-P" d="M86 0V-720H372Q449 -720 503 -695Q557 -670 586 -623Q614 -576 614 -510Q614 -444 586 -396Q557 -349 503 -323Q449 -297 372 -297H146V-369H369Q449 -369 490 -406Q532 -442 532 -510Q532 -578 491 -613Q450 -648 369 -648H168V0Z"/><path id="body-o" d="M292 10Q217 10 160 -25Q103 -60 72 -120Q40 -181 40 -257Q40 -334 72 -393Q104 -452 160 -486Q217 -520 292 -520Q368 -520 424 -486Q481 -452 512 -393Q544 -334 544 -257Q544 -181 512 -120Q481 -60 424 -25Q368 10 292 10ZM292 -58Q344 -58 382 -84Q420 -109 441 -154Q462 -199 462 -258Q462 -346 416 -399Q369 -452 292 -452Q216 -452 169 -399Q122 -346 122 -258Q122 -199 143 -154Q164 -109 202 -84Q241 -58 292 -58Z"/><path id="body-m" d="M80 0V-510H155V-390H160V0ZM424 0V-338Q424 -396 398 -423Q372 -450 323 -450Q277 -450 240 -428Q203 -406 182 -367Q160 -328 160 -276L147 -397Q173 -454 225 -487Q277 -520 338 -520Q412 -520 458 -476Q504 -433 504 -359V0ZM768 0V-338Q768 -396 742 -423Q716 -450 667 -450Q621 -450 584 -428Q547 -406 526 -367Q504 -328 504 -276L484 -397Q510 -454 564 -487Q618 -520 680 -520Q754 -520 801 -476Q848 -433 848 -359V0Z"/><path id="body-p" d="M332 9Q260 9 211 -26Q162 -61 144 -125L160 -127V205H80V-510H155V-391L144 -394Q163 -453 216 -486Q269 -520 339 -520Q407 -520 458 -487Q508 -454 536 -395Q564 -336 564 -257Q564 -177 535 -117Q506 -57 454 -24Q402 9 332 9ZM320 -61Q396 -61 439 -114Q482 -166 482 -257Q482 -347 439 -398Q396 -450 320 -450Q244 -450 200 -398Q156 -345 156 -254Q156 -165 200 -113Q244 -61 320 -61Z"/><path id="body-F" d="M86 0V-720H168V0ZM128 -309V-381H516V-309ZM128 -648V-720H544V-648Z"/><path id="body-g" d="M283 215Q192 215 132 172Q71 130 58 60H134Q145 100 184 124Q222 147 288 147Q366 147 406 104Q446 62 446 -20V-129L456 -127Q439 -69 388 -34Q337 0 267 0Q200 0 149 -32Q98 -65 70 -123Q42 -181 42 -258Q42 -336 71 -395Q100 -454 152 -486Q205 -519 275 -519Q347 -519 396 -484Q444 -449 460 -384L451 -383V-510H526V-20Q526 89 461 152Q396 215 283 215ZM287 -69Q362 -69 406 -121Q450 -173 450 -262Q450 -349 406 -400Q362 -450 287 -450Q211 -450 168 -399Q124 -348 124 -259Q124 -172 168 -120Q212 -69 287 -69Z"/><path id="mono-bold-two" d="M44 0Q44 -86 66 -152Q89 -217 146 -271Q202 -325 300 -376Q337 -395 361 -413Q385 -431 397 -453Q409 -475 409 -507Q409 -536 398 -556Q387 -577 366 -588Q345 -600 313 -600Q259 -600 232 -570Q204 -539 194 -482L47 -491Q58 -600 126 -663Q193 -726 315 -726Q395 -726 448 -700Q502 -673 529 -626Q556 -579 556 -515Q556 -458 538 -417Q520 -376 479 -342Q438 -308 367 -269Q310 -238 276 -212Q241 -187 225 -166Q209 -146 207 -128H556V0Z"/><path id="mono-bold-P" d="M78 0V-710H307Q381 -710 437 -682Q493 -653 524 -602Q556 -550 556 -482Q556 -413 524 -362Q493 -311 437 -282Q381 -254 307 -254H220V0ZM220 -383H292Q352 -383 381 -408Q410 -433 410 -482Q410 -531 381 -556Q352 -582 292 -582H220Z"/><path id="mono-F" d="M100 0V-710H540V-628H142L186 -670V-344L142 -388H522V-306H142L186 -350V0Z"/><path id="mono-A" d="M26 0 242 -710H358L574 0H482L300 -632L118 0ZM135 -202 165 -286H435L465 -202Z"/><path id="mono-J" d="M275 16Q205 16 153 -14Q101 -44 72 -100Q42 -155 40 -230L124 -238Q127 -152 164 -110Q201 -68 275 -68Q349 -68 386 -110Q424 -153 424 -238V-710H510V-238Q510 -120 447 -52Q384 16 275 16Z"/><path id="mono-W" d="M108 0 30 -710H120L186 -50H176L254 -630H346L424 -50H414L480 -710H570L492 0H362L288 -560H312L238 0Z"/><path id="mono-B" d="M90 0V-710H290Q407 -710 466 -658Q526 -606 526 -516Q526 -472 505 -437Q484 -402 446 -382Q408 -362 358 -362V-368Q420 -368 464 -347Q509 -326 532 -288Q556 -250 556 -198Q556 -106 492 -53Q428 0 315 0ZM176 -84H316Q393 -84 430 -114Q466 -144 466 -198Q466 -255 428 -287Q390 -319 316 -319H176ZM176 -403H294Q368 -403 402 -432Q436 -461 436 -514Q436 -568 402 -597Q368 -626 294 -626H176Z"/><path id="mono-C" d="M302 16Q217 16 158 -29Q99 -74 68 -157Q38 -240 38 -354Q38 -469 68 -552Q99 -635 158 -680Q217 -726 302 -726Q396 -726 462 -664Q528 -603 550 -493L458 -487Q441 -564 400 -603Q358 -642 302 -642Q245 -642 206 -608Q168 -575 148 -510Q128 -446 128 -354Q128 -263 148 -199Q168 -135 206 -102Q245 -68 302 -68Q364 -68 407 -111Q450 -154 465 -239L556 -234Q537 -117 470 -50Q403 16 302 16Z"/><path id="body-L" d="M86 0V-720H168V0ZM128 0V-72H538V0Z"/><path id="body-i" d="M80 0V-510H160V0ZM74 -626V-720H166V-626Z"/><path id="body-c" d="M282 10Q212 10 158 -24Q103 -59 72 -120Q40 -180 40 -257Q40 -334 72 -393Q103 -452 158 -486Q212 -520 281 -520Q338 -520 384 -498Q429 -476 458 -436Q488 -395 496 -341H422Q412 -390 376 -421Q340 -452 283 -452Q234 -452 198 -428Q162 -404 142 -360Q122 -316 122 -257Q122 -198 142 -153Q162 -108 198 -83Q235 -58 284 -58Q339 -58 376 -88Q413 -119 423 -168H497Q488 -115 458 -74Q427 -34 382 -12Q337 10 282 10Z"/><path id="body-K" d="M86 0V-720H168V0ZM159 -374 533 -720H648L266 -374ZM549 0 157 -374H266L668 0Z"/><path id="body-w" d="M184 0 28 -510H109L229 -73H209L353 -510H418L563 -73H543L662 -510H739L583 0H518L374 -427H395L249 0Z"/><path id="body-hyphen" d="M80 -234V-310H426V-234Z"/><path id="body-A" d="M36 0 314 -720H386L115 0ZM608 0 337 -720H414L692 0ZM174 -291H550V-219H174Z"/><path id="mono-bold-three" d="M295 16Q173 16 112 -42Q50 -99 44 -196L188 -203Q193 -152 224 -131Q254 -110 298 -110Q329 -110 354 -120Q380 -131 395 -153Q410 -175 410 -210Q410 -244 396 -267Q381 -290 354 -302Q328 -314 291 -314H238V-427H291Q319 -427 341 -436Q363 -445 376 -464Q388 -483 388 -513Q388 -558 364 -580Q339 -601 297 -601Q251 -601 228 -580Q204 -558 199 -521L55 -528Q66 -619 128 -672Q189 -726 298 -726Q371 -726 424 -703Q477 -680 506 -636Q534 -593 534 -532Q534 -464 493 -424Q452 -383 375 -370V-389Q461 -379 508 -328Q556 -278 556 -200Q556 -133 524 -84Q492 -36 434 -10Q375 16 295 16Z"/><path id="mono-bold-G" d="M302 16Q221 16 160 -28Q100 -71 66 -154Q32 -236 32 -354Q32 -469 64 -552Q97 -636 158 -681Q218 -726 303 -726Q374 -726 426 -697Q478 -668 512 -612Q547 -557 562 -476L417 -468Q406 -532 378 -565Q349 -598 304 -598Q264 -598 236 -570Q208 -542 193 -488Q178 -433 178 -354Q178 -276 194 -222Q210 -168 240 -140Q270 -112 313 -112Q349 -112 374 -130Q399 -147 413 -180Q427 -212 428 -258H302V-369H560V0H465L459 -154L490 -171Q485 -120 462 -78Q438 -35 398 -10Q358 16 302 16Z"/><path id="mono-bold-S" d="M306 16Q225 16 168 -15Q111 -46 80 -103Q48 -160 42 -240L185 -247Q191 -202 208 -171Q225 -140 251 -125Q277 -110 313 -110Q345 -110 368 -119Q390 -128 402 -146Q414 -163 414 -188Q414 -215 401 -236Q388 -257 356 -274Q323 -291 264 -306Q193 -324 146 -349Q100 -374 78 -413Q56 -452 56 -511Q56 -576 84 -624Q113 -673 168 -700Q222 -726 300 -726Q376 -726 430 -698Q484 -670 514 -617Q545 -564 550 -488L406 -481Q401 -518 387 -545Q373 -572 350 -586Q326 -600 294 -600Q251 -600 226 -578Q200 -556 200 -518Q200 -493 212 -475Q225 -457 256 -443Q288 -429 343 -414Q424 -395 471 -364Q518 -333 538 -291Q558 -249 558 -193Q558 -129 528 -82Q498 -36 442 -10Q385 16 306 16Z"/><path id="mono-L" d="M100 0V-710H186V-40L143 -84H540V0Z"/><path id="mono-G" d="M298 16Q223 16 164 -26Q106 -67 72 -150Q38 -232 38 -354Q38 -469 70 -552Q101 -635 160 -680Q219 -726 302 -726Q367 -726 418 -697Q468 -668 502 -616Q536 -565 551 -498L461 -492Q444 -558 404 -600Q365 -642 302 -642Q247 -642 208 -608Q169 -575 148 -510Q128 -446 128 -354Q128 -263 149 -199Q170 -135 210 -102Q249 -68 306 -68Q357 -68 394 -94Q430 -121 451 -168Q472 -216 474 -277H304V-359H554V0H474L470 -168L494 -160Q480 -109 456 -69Q431 -29 392 -6Q354 16 298 16Z"/><path id="mono-h" d="M100 0V-710H184V-413L174 -415Q184 -459 208 -487Q232 -515 267 -528Q302 -542 343 -542Q400 -542 440 -516Q479 -491 500 -446Q520 -400 520 -341V0H436V-317Q436 -394 408 -431Q381 -468 325 -468Q261 -468 222 -429Q184 -390 184 -316V0Z"/><path id="mono-v" d="M247 0 50 -530H142L300 -86L458 -530H550L353 0Z"/><path id="mono-M" d="M262 -80 128 -630H136V0H50V-710H180L320 -126H280L420 -710H550V0H464V-630H472L338 -80Z"/><path id="mono-hyphen" d="M140 -252V-331H460V-252Z"/><path id="body-D" d="M135 0V-72H328Q418 -72 483 -108Q548 -145 583 -211Q618 -277 618 -364Q618 -450 583 -514Q548 -578 484 -613Q419 -648 328 -648H135V-720H328Q441 -720 525 -676Q609 -631 656 -550Q702 -470 702 -362Q702 -254 655 -172Q608 -91 524 -46Q441 0 329 0ZM86 0V-720H168V0Z"/><path id="body-h" d="M80 0V-720H160V0ZM445 0V-334Q445 -392 416 -421Q387 -450 330 -450Q280 -450 242 -428Q203 -406 182 -367Q160 -328 160 -276L147 -397Q173 -454 226 -487Q280 -520 348 -520Q428 -520 476 -474Q525 -429 525 -355V0Z"/><path id="mono-bold-four" d="M345 0V-142H28V-259L326 -710H488V-266H572V-142H488V0ZM162 -266H345V-531Z"/><path id="mono-bold-V" d="M227 0 20 -710H171L323 -142H277L429 -710H580L373 0Z"/><path id="mono-bold-L" d="M94 0V-710H236V-41L132 -128H546V0Z"/><path id="mono-b" d="M333 12Q278 12 235 -12Q192 -37 169 -80L166 0H90V-710H174V-456Q194 -489 236 -516Q278 -542 333 -542Q403 -542 454 -508Q505 -474 532 -412Q560 -350 560 -265Q560 -180 532 -118Q505 -56 454 -22Q403 12 333 12ZM328 -68Q395 -68 434 -121Q472 -174 472 -265Q472 -357 434 -410Q395 -462 330 -462Q281 -462 246 -438Q211 -415 192 -371Q174 -327 174 -265Q174 -205 192 -160Q211 -116 246 -92Q280 -68 328 -68Z"/><path id="mono-Q" d="M430 69 240 -208H332L522 69ZM300 16Q216 16 158 -27Q99 -70 68 -153Q38 -236 38 -354Q38 -474 68 -557Q99 -640 158 -683Q216 -726 300 -726Q384 -726 442 -683Q501 -640 532 -557Q562 -474 562 -354Q562 -236 532 -153Q501 -70 442 -27Q384 16 300 16ZM300 -68Q355 -68 394 -100Q432 -133 452 -197Q472 -261 472 -354Q472 -447 452 -512Q432 -576 394 -609Q355 -642 300 -642Q245 -642 206 -609Q168 -576 148 -512Q128 -447 128 -354Q128 -261 148 -197Q168 -133 206 -100Q245 -68 300 -68Z"/><path id="mono-plus" d="M61 -256V-334H539V-256ZM261 -56V-534H339V-56Z"/><path id="mono-five" d="M298 16Q229 16 178 -9Q126 -34 96 -79Q65 -124 60 -183L150 -189Q158 -129 198 -98Q237 -68 298 -68Q367 -68 408 -110Q450 -153 450 -228Q450 -278 432 -314Q414 -351 380 -370Q347 -390 300 -390Q258 -390 220 -370Q181 -349 164 -311H72L119 -710H497V-626H198L166 -364L150 -380Q166 -411 192 -431Q218 -451 250 -462Q281 -472 312 -472Q380 -472 432 -440Q483 -409 512 -354Q540 -299 540 -228Q540 -157 509 -102Q478 -46 424 -15Q369 16 298 16Z"/><path id="body-T" d="M283 0V-648H36V-720H612V-648H365V0Z"/><path id="body-B" d="M140 0V-68H370Q436 -68 475 -104Q514 -140 514 -201Q514 -266 473 -305Q432 -344 363 -344H140V-410H352Q420 -410 458 -443Q496 -476 496 -536Q496 -592 460 -622Q425 -652 357 -652H140V-720H364Q463 -720 520 -673Q578 -626 578 -545Q578 -494 555 -454Q532 -414 492 -392Q452 -369 400 -369L405 -390Q460 -390 504 -364Q547 -338 572 -294Q598 -249 598 -192Q598 -135 570 -92Q543 -48 493 -24Q443 0 377 0ZM86 0V-720H168V0Z"/><path id="mono-bold-five" d="M299 16Q224 16 170 -11Q115 -38 84 -84Q53 -131 48 -190L194 -198Q201 -154 227 -132Q253 -110 299 -110Q348 -110 377 -141Q406 -172 406 -233Q406 -273 392 -301Q379 -329 356 -344Q332 -358 300 -358Q267 -358 241 -340Q215 -323 205 -296L58 -303L100 -710H519V-582H217L192 -369L162 -384Q179 -412 204 -432Q228 -452 258 -462Q289 -473 324 -473Q394 -473 446 -442Q497 -411 524 -356Q552 -302 552 -232Q552 -159 520 -103Q489 -47 432 -16Q376 16 299 16Z"/><path id="mono-bold-D" d="M68 0V-710H251Q351 -710 422 -669Q492 -628 530 -548Q568 -469 568 -355Q568 -241 530 -162Q492 -83 422 -42Q351 0 251 0ZM211 -128H252Q335 -128 378 -184Q422 -241 422 -355Q422 -468 378 -525Q335 -582 252 -582H211Z"/><path id="mono-z" d="M82 0V-84L418 -456H92V-530H510V-446L174 -74H518V0Z"/><path id="mono-bold-six" d="M302 16Q216 16 157 -22Q98 -59 68 -132Q38 -204 38 -307Q38 -395 54 -471Q70 -547 104 -604Q139 -662 194 -694Q249 -726 328 -726Q398 -726 444 -703Q491 -680 518 -640Q546 -600 559 -548L415 -538Q408 -565 388 -582Q369 -600 328 -600Q284 -600 252 -574Q219 -549 200 -493Q182 -437 181 -346L137 -350Q148 -382 172 -412Q197 -442 237 -460Q277 -479 331 -479Q402 -479 454 -450Q505 -420 534 -366Q562 -313 562 -241Q562 -162 530 -104Q497 -47 439 -16Q381 16 302 16ZM299 -112Q355 -112 386 -144Q416 -176 416 -236Q416 -292 388 -325Q360 -358 305 -358Q268 -358 240 -342Q213 -327 198 -300Q184 -272 184 -235Q184 -201 198 -173Q211 -145 237 -128Q263 -112 299 -112Z"/><path id="mono-bold-M" d="M257 -98 157 -522 174 -526V0H44V-710H204L319 -260H281L396 -710H556V0H426V-526L443 -522L343 -98Z"/><path id="mono-bold-O" d="M300 16Q214 16 154 -27Q95 -70 64 -152Q32 -235 32 -354Q32 -473 64 -556Q95 -639 154 -682Q214 -726 300 -726Q386 -726 446 -682Q506 -639 537 -556Q568 -473 568 -354Q568 -235 537 -152Q506 -70 446 -27Q386 16 300 16ZM300 -110Q340 -110 367 -136Q394 -161 408 -215Q422 -269 422 -354Q422 -439 408 -494Q394 -548 367 -574Q340 -600 300 -600Q261 -600 234 -574Q206 -548 192 -494Q178 -439 178 -354Q178 -269 192 -215Q206 -161 234 -136Q261 -110 300 -110Z"/><path id="mono-O" d="M300 16Q216 16 158 -27Q99 -70 68 -153Q38 -236 38 -354Q38 -474 68 -557Q99 -640 158 -683Q216 -726 300 -726Q384 -726 442 -683Q501 -640 532 -557Q562 -474 562 -354Q562 -236 532 -153Q501 -70 442 -27Q384 16 300 16ZM300 -68Q355 -68 394 -100Q432 -133 452 -197Q472 -261 472 -354Q472 -447 452 -512Q432 -576 394 -609Q355 -642 300 -642Q245 -642 206 -609Q168 -576 148 -512Q128 -447 128 -354Q128 -261 148 -197Q168 -133 206 -100Q245 -68 300 -68Z"/><path id="mono-parenleft" d="M332 110Q263 6 228 -102Q193 -211 193 -320Q193 -542 332 -750H407Q280 -534 280 -320Q280 -213 312 -106Q344 2 407 110Z"/><path id="mono-comma" d="M247 156 294 0H240V-122H360V-14L297 156Z"/><path id="mono-f" d="M212 0V-564Q212 -635 248 -672Q285 -710 360 -710H530V-636H360Q329 -636 312 -616Q296 -597 296 -564V0ZM70 -456V-530H520V-456Z"/><path id="mono-parenright" d="M268 110H193Q256 2 288 -106Q320 -213 320 -320Q320 -534 193 -750H268Q407 -542 407 -320Q407 -211 372 -102Q337 6 268 110Z"/></defs><rect x="0.5" y="0.5" width="999" height="617" rx="18" fill="#0B0C10" stroke="#252936"/><g transform="translate(40 52) scale(0.026)" fill="#EDEBE4"><use href="#display-O" x="0"/><use href="#display-n" x="722"/><use href="#display-e" x="1353"/><use href="#display-e" x="2164"/><use href="#display-n" x="2745"/><use href="#display-g" x="3376"/><use href="#display-i" x="3977"/><use href="#display-n" x="4254"/><use href="#display-e" x="4885"/><use href="#display-e" x="5471"/><use href="#display-r" x="6052"/><use href="#display-comma" x="6413"/><use href="#display-e" x="6839"/><use href="#display-v" x="7411"/><use href="#display-e" x="7972"/><use href="#display-r" x="8553"/><use href="#display-y" x="8987"/><use href="#display-l" x="9819"/><use href="#display-a" x="10093"/><use href="#display-y" x="10676"/><use href="#display-e" x="11278"/><use href="#display-r" x="11859"/><use href="#display-o" x="12523"/><use href="#display-f" x="13132"/><use href="#display-a" x="13761"/><use href="#display-n" x="14346"/><use href="#display-A" x="15207"/><use href="#display-I" x="15905"/><use href="#display-p" x="16428"/><use href="#display-r" x="17066"/><use href="#display-o" x="17498"/><use href="#display-d" x="18107"/><use href="#display-u" x="18746"/><use href="#display-c" x="19368"/><use href="#display-t" x="19934"/></g><g transform="translate(810 50) scale(0.0115)" fill="#5B6CFF"><use href="#mono-arrowdown" x="0"/><use href="#mono-r" x="1200"/><use href="#mono-e" x="1800"/><use href="#mono-q" x="2400"/><use href="#mono-u" x="3000"/><use href="#mono-e" x="3600"/><use href="#mono-s" x="4200"/><use href="#mono-t" x="4800"/></g><g transform="translate(900 50) scale(0.0115)" fill="#FF3B55"><use href="#mono-arrowup" x="0"/><use href="#mono-t" x="1200"/><use href="#mono-o" x="1800"/><use href="#mono-k" x="2400"/><use href="#mono-e" x="3000"/><use href="#mono-n" x="3600"/><use href="#mono-s" x="4200"/></g><line x1="60" y1="127" x2="60" y2="537" stroke="#252936" stroke-width="2"/><rect x="84" y="92" width="876" height="70" rx="12" fill="#12141A" stroke="#252936" stroke-width="1.5" style="animation:kd9483dc 6.0s linear 0.0s infinite both"/><rect x="84" y="106" width="4" height="42" rx="2" fill="#5B6CFF"/><circle cx="60" cy="127" r="7" fill="#0B0C10" stroke="#5B6CFF" stroke-width="2.5"/><g transform="translate(106 120) scale(0.0115)" fill="#5B6CFF"><use href="#mono-bold-zero" x="0"/><use href="#mono-bold-one" x="713"/><use href="#mono-bold-I" x="2852"/><use href="#mono-bold-N" x="3565"/><use href="#mono-bold-T" x="4278"/><use href="#mono-bold-E" x="4991"/><use href="#mono-bold-R" x="5704"/><use href="#mono-bold-F" x="6417"/><use href="#mono-bold-A" x="7130"/><use href="#mono-bold-C" x="7843"/><use href="#mono-bold-E" x="8557"/></g><g transform="translate(106 144) scale(0.0125)" fill="#EDEBE4"><use href="#mono-N" x="0"/><use href="#mono-e" x="600"/><use href="#mono-x" x="1200"/><use href="#mono-t" x="1800"/><use href="#mono-period" x="2400"/><use href="#mono-j" x="3000"/><use href="#mono-s" x="3600"/><use href="#mono-periodcentered" x="4800"/><use href="#mono-R" x="6000"/><use href="#mono-e" x="6600"/><use href="#mono-a" x="7200"/><use href="#mono-c" x="7800"/><use href="#mono-t" x="8400"/><use href="#mono-periodcentered" x="9600"/><use href="#mono-T" x="10800"/><use href="#mono-y" x="11400"/><use href="#mono-p" x="12000"/><use href="#mono-e" x="12600"/><use href="#mono-S" x="13200"/><use href="#mono-c" x="13800"/><use href="#mono-r" x="14400"/><use href="#mono-i" x="15000"/><use href="#mono-p" x="15600"/><use href="#mono-t" x="16200"/><use href="#mono-periodcentered" x="17400"/><use href="#mono-T" x="18600"/><use href="#mono-a" x="19200"/><use href="#mono-i" x="19800"/><use href="#mono-l" x="20400"/><use href="#mono-w" x="21000"/><use href="#mono-i" x="21600"/><use href="#mono-n" x="22200"/><use href="#mono-d" x="22800"/><use href="#mono-periodcentered" x="24000"/><use href="#mono-S" x="25200"/><use href="#mono-S" x="25800"/><use href="#mono-E" x="26400"/><use href="#mono-s" x="27600"/><use href="#mono-t" x="28200"/><use href="#mono-r" x="28800"/><use href="#mono-e" x="29400"/><use href="#mono-a" x="30000"/><use href="#mono-m" x="30600"/><use href="#mono-i" x="31200"/><use href="#mono-n" x="31800"/><use href="#mono-g" x="32400"/></g><line x1="642" y1="108" x2="642" y2="146" stroke="#252936"/><g transform="translate(658 120) scale(0.01)" fill="#5C606C"><use href="#mono-S" x="0"/><use href="#mono-H" x="720"/><use href="#mono-I" x="1440"/><use href="#mono-P" x="2160"/><use href="#mono-P" x="2880"/><use href="#mono-E" x="3600"/><use href="#mono-D" x="4320"/><use href="#mono-I" x="5760"/><use href="#mono-N" x="6480"/></g><g transform="translate(658 143) scale(0.014)" fill="#BDBBB3"><use href="#body-M" x="0"/><use href="#body-a" x="906"/><use href="#body-n" x="1439"/><use href="#body-d" x="2038"/><use href="#body-a" x="2644"/><use href="#body-t" x="3163"/><use href="#body-e" x="3529"/><use href="#body-O" x="4089"/><use href="#body-S" x="4873"/><use href="#body-periodcentered" x="5881"/><use href="#body-C" x="6384"/><use href="#body-l" x="7125"/><use href="#body-a" x="7365"/><use href="#body-u" x="7898"/><use href="#body-s" x="8485"/><use href="#body-e" x="8976"/><use href="#body-G" x="9536"/><use href="#body-u" x="10301"/><use href="#body-a" x="10886"/><use href="#body-r" x="11419"/><use href="#body-d" x="11777"/><use href="#body-periodcentered" x="12783"/><use href="#body-P" x="13286"/><use href="#body-r" x="13942"/><use href="#body-o" x="14299"/><use href="#body-m" x="14883"/><use href="#body-p" x="15805"/><use href="#body-t" x="16408"/><use href="#body-F" x="16785"/><use href="#body-o" x="17353"/><use href="#body-r" x="17937"/><use href="#body-g" x="18295"/><use href="#body-e" x="18901"/></g><rect x="84" y="174" width="876" height="70" rx="12" fill="#12141A" stroke="#252936" stroke-width="1.5" style="animation:k63e0e12 6.0s linear 0.0s infinite both"/><rect x="84" y="188" width="4" height="42" rx="2" fill="#8174FF"/><circle cx="60" cy="209" r="7" fill="#0B0C10" stroke="#8174FF" stroke-width="2.5"/><g transform="translate(106 202) scale(0.0115)" fill="#8174FF"><use href="#mono-bold-zero" x="0"/><use href="#mono-bold-two" x="713"/><use href="#mono-bold-A" x="2852"/><use href="#mono-bold-P" x="3565"/><use href="#mono-bold-I" x="4278"/></g><g transform="translate(106 226) scale(0.0125)" fill="#EDEBE4"><use href="#mono-N" x="0"/><use href="#mono-o" x="600"/><use href="#mono-d" x="1200"/><use href="#mono-e" x="1800"/><use href="#mono-period" x="2400"/><use href="#mono-j" x="3000"/><use href="#mono-s" x="3600"/><use href="#mono-periodcentered" x="4800"/><use href="#mono-E" x="6000"/><use href="#mono-x" x="6600"/><use href="#mono-p" x="7200"/><use href="#mono-r" x="7800"/><use href="#mono-e" x="8400"/><use href="#mono-s" x="9000"/><use href="#mono-s" x="9600"/><use href="#mono-periodcentered" x="10800"/><use href="#mono-F" x="12000"/><use href="#mono-a" x="12600"/><use href="#mono-s" x="13200"/><use href="#mono-t" x="13800"/><use href="#mono-A" x="14400"/><use href="#mono-P" x="15000"/><use href="#mono-I" x="15600"/><use href="#mono-periodcentered" x="16800"/><use href="#mono-R" x="18000"/><use href="#mono-E" x="18600"/><use href="#mono-S" x="19200"/><use href="#mono-T" x="19800"/><use href="#mono-periodcentered" x="21000"/><use href="#mono-J" x="22200"/><use href="#mono-W" x="22800"/><use href="#mono-T" x="23400"/><use href="#mono-periodcentered" x="24600"/><use href="#mono-R" x="25800"/><use href="#mono-B" x="26400"/><use href="#mono-A" x="27000"/><use href="#mono-C" x="27600"/></g><line x1="642" y1="190" x2="642" y2="228" stroke="#252936"/><g transform="translate(658 202) scale(0.01)" fill="#5C606C"><use href="#mono-S" x="0"/><use href="#mono-H" x="720"/><use href="#mono-I" x="1440"/><use href="#mono-P" x="2160"/><use href="#mono-P" x="2880"/><use href="#mono-E" x="3600"/><use href="#mono-D" x="4320"/><use href="#mono-I" x="5760"/><use href="#mono-N" x="6480"/></g><g transform="translate(658 225) scale(0.014)" fill="#BDBBB3"><use href="#body-L" x="0"/><use href="#body-a" x="563"/><use href="#body-n" x="1096"/><use href="#body-g" x="1695"/><use href="#body-u" x="2301"/><use href="#body-a" x="2886"/><use href="#body-g" x="3419"/><use href="#body-e" x="4025"/><use href="#body-M" x="4789"/><use href="#body-e" x="5695"/><use href="#body-t" x="6253"/><use href="#body-r" x="6630"/><use href="#body-i" x="6996"/><use href="#body-c" x="7234"/><use href="#body-s" x="7767"/><use href="#body-periodcentered" x="8640"/><use href="#body-K" x="9143"/><use href="#body-n" x="9835"/><use href="#body-o" x="10434"/><use href="#body-w" x="11008"/><use href="#body-l" x="11775"/><use href="#body-e" x="12015"/><use href="#body-d" x="12579"/><use href="#body-g" x="13185"/><use href="#body-e" x="13791"/><use href="#body-hyphen" x="14331"/><use href="#body-A" x="14766"/><use href="#body-g" x="15478"/><use href="#body-e" x="16084"/><use href="#body-n" x="16648"/><use href="#body-t" x="17233"/></g><rect x="84" y="256" width="876" height="70" rx="12" fill="#12141A" stroke="#252936" stroke-width="1.5" style="animation:kbbb3b55 6.0s linear 0.0s infinite both"/><rect x="84" y="270" width="4" height="42" rx="2" fill="#A77BFF"/><circle cx="60" cy="291" r="7" fill="#0B0C10" stroke="#A77BFF" stroke-width="2.5"/><g transform="translate(106 284) scale(0.0115)" fill="#A77BFF"><use href="#mono-bold-zero" x="0"/><use href="#mono-bold-three" x="713"/><use href="#mono-bold-A" x="2852"/><use href="#mono-bold-G" x="3565"/><use href="#mono-bold-E" x="4278"/><use href="#mono-bold-N" x="4991"/><use href="#mono-bold-T" x="5704"/><use href="#mono-bold-S" x="6417"/></g><g transform="translate(106 308) scale(0.0125)" fill="#EDEBE4"><use href="#mono-L" x="0"/><use href="#mono-a" x="600"/><use href="#mono-n" x="1200"/><use href="#mono-g" x="1800"/><use href="#mono-G" x="2400"/><use href="#mono-r" x="3000"/><use href="#mono-a" x="3600"/><use href="#mono-p" x="4200"/><use href="#mono-h" x="4800"/><use href="#mono-periodcentered" x="6000"/><use href="#mono-L" x="7200"/><use href="#mono-a" x="7800"/><use href="#mono-n" x="8400"/><use href="#mono-g" x="9000"/><use href="#mono-C" x="9600"/><use href="#mono-h" x="10200"/><use href="#mono-a" x="10800"/><use href="#mono-i" x="11400"/><use href="#mono-n" x="12000"/><use href="#mono-periodcentered" x="13200"/><use href="#mono-t" x="14400"/><use href="#mono-o" x="15000"/><use href="#mono-o" x="15600"/><use href="#mono-l" x="16200"/><use href="#mono-c" x="17400"/><use href="#mono-a" x="18000"/><use href="#mono-l" x="18600"/><use href="#mono-l" x="19200"/><use href="#mono-s" x="19800"/><use href="#mono-periodcentered" x="21000"/><use href="#mono-c" x="22200"/><use href="#mono-o" x="22800"/><use href="#mono-n" x="23400"/><use href="#mono-s" x="24000"/><use href="#mono-e" x="24600"/><use href="#mono-n" x="25200"/><use href="#mono-s" x="25800"/><use href="#mono-u" x="26400"/><use href="#mono-s" x="27000"/><use href="#mono-v" x="28200"/><use href="#mono-o" x="28800"/><use href="#mono-t" x="29400"/><use href="#mono-i" x="30000"/><use href="#mono-n" x="30600"/><use href="#mono-g" x="31200"/><use href="#mono-periodcentered" x="32400"/><use href="#mono-L" x="33600"/><use href="#mono-L" x="34200"/><use href="#mono-M" x="34800"/><use href="#mono-hyphen" x="35400"/><use href="#mono-a" x="36000"/><use href="#mono-s" x="36600"/><use href="#mono-hyphen" x="37200"/><use href="#mono-j" x="37800"/><use href="#mono-u" x="38400"/><use href="#mono-d" x="39000"/><use href="#mono-g" x="39600"/><use href="#mono-e" x="40200"/></g><line x1="642" y1="272" x2="642" y2="310" stroke="#252936"/><g transform="translate(658 284) scale(0.01)" fill="#5C606C"><use href="#mono-S" x="0"/><use href="#mono-H" x="720"/><use href="#mono-I" x="1440"/><use href="#mono-P" x="2160"/><use href="#mono-P" x="2880"/><use href="#mono-E" x="3600"/><use href="#mono-D" x="4320"/><use href="#mono-I" x="5760"/><use href="#mono-N" x="6480"/></g><g transform="translate(658 307) scale(0.014)" fill="#BDBBB3"><use href="#body-C" x="0"/><use href="#body-l" x="741"/><use href="#body-a" x="981"/><use href="#body-u" x="1514"/><use href="#body-s" x="2101"/><use href="#body-e" x="2592"/><use href="#body-G" x="3152"/><use href="#body-u" x="3917"/><use href="#body-a" x="4502"/><use href="#body-r" x="5035"/><use href="#body-d" x="5393"/><use href="#body-periodcentered" x="6399"/><use href="#body-K" x="6902"/><use href="#body-n" x="7594"/><use href="#body-o" x="8193"/><use href="#body-w" x="8767"/><use href="#body-l" x="9534"/><use href="#body-e" x="9774"/><use href="#body-d" x="10338"/><use href="#body-g" x="10944"/><use href="#body-e" x="11550"/><use href="#body-hyphen" x="12090"/><use href="#body-A" x="12525"/><use href="#body-g" x="13237"/><use href="#body-e" x="13843"/><use href="#body-n" x="14407"/><use href="#body-t" x="14992"/><use href="#body-periodcentered" x="15769"/><use href="#body-D" x="16272"/><use href="#body-r" x="17024"/><use href="#body-i" x="17390"/><use href="#body-s" x="17630"/><use href="#body-h" x="18103"/><use href="#body-t" x="18688"/><use href="#body-i" x="19065"/></g><rect x="84" y="338" width="876" height="70" rx="12" fill="#12141A" stroke="#252936" stroke-width="1.5" style="animation:k90729d2 6.0s linear 0.0s infinite both"/><rect x="84" y="352" width="4" height="42" rx="2" fill="#C665C4"/><circle cx="60" cy="373" r="7" fill="#0B0C10" stroke="#C665C4" stroke-width="2.5"/><g transform="translate(106 366) scale(0.0115)" fill="#C665C4"><use href="#mono-bold-zero" x="0"/><use href="#mono-bold-four" x="713"/><use href="#mono-bold-R" x="2852"/><use href="#mono-bold-E" x="3565"/><use href="#mono-bold-T" x="4278"/><use href="#mono-bold-R" x="4991"/><use href="#mono-bold-I" x="5704"/><use href="#mono-bold-E" x="6417"/><use href="#mono-bold-V" x="7130"/><use href="#mono-bold-A" x="7843"/><use href="#mono-bold-L" x="8557"/></g><g transform="translate(106 390) scale(0.0125)" fill="#EDEBE4"><use href="#mono-R" x="0"/><use href="#mono-A" x="600"/><use href="#mono-G" x="1200"/><use href="#mono-periodcentered" x="2400"/><use href="#mono-e" x="3600"/><use href="#mono-m" x="4200"/><use href="#mono-b" x="4800"/><use href="#mono-e" x="5400"/><use href="#mono-d" x="6000"/><use href="#mono-d" x="6600"/><use href="#mono-i" x="7200"/><use href="#mono-n" x="7800"/><use href="#mono-g" x="8400"/><use href="#mono-s" x="9000"/><use href="#mono-periodcentered" x="10200"/><use href="#mono-Q" x="11400"/><use href="#mono-d" x="12000"/><use href="#mono-r" x="12600"/><use href="#mono-a" x="13200"/><use href="#mono-n" x="13800"/><use href="#mono-t" x="14400"/><use href="#mono-periodcentered" x="15600"/><use href="#mono-C" x="16800"/><use href="#mono-h" x="17400"/><use href="#mono-r" x="18000"/><use href="#mono-o" x="18600"/><use href="#mono-m" x="19200"/><use href="#mono-a" x="19800"/><use href="#mono-D" x="20400"/><use href="#mono-B" x="21000"/><use href="#mono-periodcentered" x="22200"/><use href="#mono-s" x="23400"/><use href="#mono-q" x="24000"/><use href="#mono-l" x="24600"/><use href="#mono-i" x="25200"/><use href="#mono-t" x="25800"/><use href="#mono-e" x="26400"/><use href="#mono-hyphen" x="27000"/><use href="#mono-v" x="27600"/><use href="#mono-e" x="28200"/><use href="#mono-c" x="28800"/><use href="#mono-plus" x="30000"/><use href="#mono-F" x="31200"/><use href="#mono-T" x="31800"/><use href="#mono-S" x="32400"/><use href="#mono-five" x="33000"/><use href="#mono-h" x="34200"/><use href="#mono-y" x="34800"/><use href="#mono-b" x="35400"/><use href="#mono-r" x="36000"/><use href="#mono-i" x="36600"/><use href="#mono-d" x="37200"/></g><line x1="642" y1="354" x2="642" y2="392" stroke="#252936"/><g transform="translate(658 366) scale(0.01)" fill="#5C606C"><use href="#mono-S" x="0"/><use href="#mono-H" x="720"/><use href="#mono-I" x="1440"/><use href="#mono-P" x="2160"/><use href="#mono-P" x="2880"/><use href="#mono-E" x="3600"/><use href="#mono-D" x="4320"/><use href="#mono-I" x="5760"/><use href="#mono-N" x="6480"/></g><g transform="translate(658 389) scale(0.014)" fill="#BDBBB3"><use href="#body-K" x="0"/><use href="#body-n" x="692"/><use href="#body-o" x="1291"/><use href="#body-w" x="1865"/><use href="#body-l" x="2632"/><use href="#body-e" x="2872"/><use href="#body-d" x="3436"/><use href="#body-g" x="4042"/><use href="#body-e" x="4648"/><use href="#body-hyphen" x="5188"/><use href="#body-A" x="5623"/><use href="#body-g" x="6335"/><use href="#body-e" x="6941"/><use href="#body-n" x="7505"/><use href="#body-t" x="8090"/><use href="#body-periodcentered" x="8867"/><use href="#body-T" x="9370"/><use href="#body-r" x="9902"/><use href="#body-u" x="10269"/><use href="#body-e" x="10856"/><use href="#body-B" x="11414"/><use href="#body-r" x="12050"/><use href="#body-a" x="12410"/><use href="#body-i" x="12943"/><use href="#body-n" x="13183"/><use href="#body-periodcentered" x="14182"/><use href="#body-D" x="14685"/><use href="#body-r" x="15437"/><use href="#body-i" x="15803"/><use href="#body-s" x="16043"/><use href="#body-h" x="16516"/><use href="#body-t" x="17101"/><use href="#body-i" x="17478"/></g><rect x="84" y="420" width="876" height="70" rx="12" fill="#12141A" stroke="#252936" stroke-width="1.5" style="animation:k99d0c00 6.0s linear 0.0s infinite both"/><rect x="84" y="434" width="4" height="42" rx="2" fill="#E54E88"/><circle cx="60" cy="455" r="7" fill="#0B0C10" stroke="#E54E88" stroke-width="2.5"/><g transform="translate(106 448) scale(0.0115)" fill="#E54E88"><use href="#mono-bold-zero" x="0"/><use href="#mono-bold-five" x="713"/><use href="#mono-bold-D" x="2852"/><use href="#mono-bold-A" x="3565"/><use href="#mono-bold-T" x="4278"/><use href="#mono-bold-A" x="4991"/></g><g transform="translate(106 472) scale(0.0125)" fill="#EDEBE4"><use href="#mono-P" x="0"/><use href="#mono-o" x="600"/><use href="#mono-s" x="1200"/><use href="#mono-t" x="1800"/><use href="#mono-g" x="2400"/><use href="#mono-r" x="3000"/><use href="#mono-e" x="3600"/><use href="#mono-S" x="4200"/><use href="#mono-Q" x="4800"/><use href="#mono-L" x="5400"/><use href="#mono-periodcentered" x="6600"/><use href="#mono-P" x="7800"/><use href="#mono-r" x="8400"/><use href="#mono-i" x="9000"/><use href="#mono-s" x="9600"/><use href="#mono-m" x="10200"/><use href="#mono-a" x="10800"/><use href="#mono-periodcentered" x="12000"/><use href="#mono-D" x="13200"/><use href="#mono-r" x="13800"/><use href="#mono-i" x="14400"/><use href="#mono-z" x="15000"/><use href="#mono-z" x="15600"/><use href="#mono-l" x="16200"/><use href="#mono-e" x="16800"/><use href="#mono-periodcentered" x="18000"/><use href="#mono-S" x="19200"/><use href="#mono-u" x="19800"/><use href="#mono-p" x="20400"/><use href="#mono-a" x="21000"/><use href="#mono-b" x="21600"/><use href="#mono-a" x="22200"/><use href="#mono-s" x="22800"/><use href="#mono-e" x="23400"/><use href="#mono-periodcentered" x="24600"/><use href="#mono-N" x="25800"/><use href="#mono-e" x="26400"/><use href="#mono-o" x="27000"/><use href="#mono-n" x="27600"/><use href="#mono-periodcentered" x="28800"/><use href="#mono-S" x="30000"/><use href="#mono-Q" x="30600"/><use href="#mono-L" x="31200"/><use href="#mono-i" x="31800"/><use href="#mono-t" x="32400"/><use href="#mono-e" x="33000"/></g><line x1="642" y1="436" x2="642" y2="474" stroke="#252936"/><g transform="translate(658 448) scale(0.01)" fill="#5C606C"><use href="#mono-S" x="0"/><use href="#mono-H" x="720"/><use href="#mono-I" x="1440"/><use href="#mono-P" x="2160"/><use href="#mono-P" x="2880"/><use href="#mono-E" x="3600"/><use href="#mono-D" x="4320"/><use href="#mono-I" x="5760"/><use href="#mono-N" x="6480"/></g><g transform="translate(658 471) scale(0.014)" fill="#BDBBB3"><use href="#body-L" x="0"/><use href="#body-a" x="563"/><use href="#body-n" x="1096"/><use href="#body-g" x="1695"/><use href="#body-u" x="2301"/><use href="#body-a" x="2886"/><use href="#body-g" x="3419"/><use href="#body-e" x="4025"/><use href="#body-M" x="4789"/><use href="#body-e" x="5695"/><use href="#body-t" x="6253"/><use href="#body-r" x="6630"/><use href="#body-i" x="6996"/><use href="#body-c" x="7234"/><use href="#body-s" x="7767"/><use href="#body-periodcentered" x="8640"/><use href="#body-M" x="9143"/><use href="#body-a" x="10049"/><use href="#body-n" x="10582"/><use href="#body-d" x="11181"/><use href="#body-a" x="11787"/><use href="#body-t" x="12306"/><use href="#body-e" x="12672"/><use href="#body-O" x="13232"/><use href="#body-S" x="14016"/></g><rect x="84" y="502" width="876" height="70" rx="12" fill="#12141A" stroke="#252936" stroke-width="1.5" style="animation:kb3138a9 6.0s linear 0.0s infinite both"/><rect x="84" y="516" width="4" height="42" rx="2" fill="#FF3B55"/><circle cx="60" cy="537" r="7" fill="#0B0C10" stroke="#FF3B55" stroke-width="2.5"/><g transform="translate(106 530) scale(0.0115)" fill="#FF3B55"><use href="#mono-bold-zero" x="0"/><use href="#mono-bold-six" x="713"/><use href="#mono-bold-M" x="2852"/><use href="#mono-bold-O" x="3565"/><use href="#mono-bold-D" x="4278"/><use href="#mono-bold-E" x="4991"/><use href="#mono-bold-L" x="5704"/><use href="#mono-bold-S" x="6417"/></g><g transform="translate(106 554) scale(0.0125)" fill="#EDEBE4"><use href="#mono-G" x="0"/><use href="#mono-r" x="600"/><use href="#mono-o" x="1200"/><use href="#mono-q" x="1800"/><use href="#mono-periodcentered" x="3000"/><use href="#mono-O" x="4200"/><use href="#mono-l" x="4800"/><use href="#mono-l" x="5400"/><use href="#mono-a" x="6000"/><use href="#mono-m" x="6600"/><use href="#mono-a" x="7200"/><use href="#mono-parenleft" x="8400"/><use href="#mono-l" x="9000"/><use href="#mono-o" x="9600"/><use href="#mono-c" x="10200"/><use href="#mono-a" x="10800"/><use href="#mono-l" x="11400"/><use href="#mono-comma" x="12000"/><use href="#mono-o" x="13200"/><use href="#mono-f" x="13800"/><use href="#mono-f" x="14400"/><use href="#mono-l" x="15000"/><use href="#mono-i" x="15600"/><use href="#mono-n" x="16200"/><use href="#mono-e" x="16800"/><use href="#mono-parenright" x="17400"/><use href="#mono-periodcentered" x="18600"/><use href="#mono-p" x="19800"/><use href="#mono-r" x="20400"/><use href="#mono-o" x="21000"/><use href="#mono-m" x="21600"/><use href="#mono-p" x="22200"/><use href="#mono-t" x="22800"/><use href="#mono-e" x="24000"/><use href="#mono-n" x="24600"/><use href="#mono-g" x="25200"/><use href="#mono-i" x="25800"/><use href="#mono-n" x="26400"/><use href="#mono-e" x="27000"/><use href="#mono-e" x="27600"/><use href="#mono-r" x="28200"/><use href="#mono-i" x="28800"/><use href="#mono-n" x="29400"/><use href="#mono-g" x="30000"/><use href="#mono-periodcentered" x="31200"/><use href="#mono-R" x="32400"/><use href="#mono-A" x="33000"/><use href="#mono-G" x="33600"/><use href="#mono-A" x="34200"/><use href="#mono-S" x="34800"/><use href="#mono-e" x="36000"/><use href="#mono-v" x="36600"/><use href="#mono-a" x="37200"/><use href="#mono-l" x="37800"/></g><line x1="642" y1="518" x2="642" y2="556" stroke="#252936"/><g transform="translate(658 530) scale(0.01)" fill="#5C606C"><use href="#mono-S" x="0"/><use href="#mono-H" x="720"/><use href="#mono-I" x="1440"/><use href="#mono-P" x="2160"/><use href="#mono-P" x="2880"/><use href="#mono-E" x="3600"/><use href="#mono-D" x="4320"/><use href="#mono-I" x="5760"/><use href="#mono-N" x="6480"/></g><g transform="translate(658 553) scale(0.014)" fill="#BDBBB3"><use href="#body-K" x="0"/><use href="#body-n" x="692"/><use href="#body-o" x="1291"/><use href="#body-w" x="1865"/><use href="#body-l" x="2632"/><use href="#body-e" x="2872"/><use href="#body-d" x="3436"/><use href="#body-g" x="4042"/><use href="#body-e" x="4648"/><use href="#body-hyphen" x="5188"/><use href="#body-A" x="5623"/><use href="#body-g" x="6335"/><use href="#body-e" x="6941"/><use href="#body-n" x="7505"/><use href="#body-t" x="8090"/><use href="#body-periodcentered" x="8867"/><use href="#body-D" x="9370"/><use href="#body-r" x="10122"/><use href="#body-i" x="10488"/><use href="#body-s" x="10728"/><use href="#body-h" x="11201"/><use href="#body-t" x="11786"/><use href="#body-i" x="12163"/></g><circle r="5" fill="#5B6CFF" opacity="0" style="animation:k80e7839 6.0s linear 0.0s infinite both"/><rect x="-4" y="-4" width="8" height="8" rx="2" fill="#FF3B55" opacity="0" style="animation:k2dde61a 6.0s linear 0.0s infinite both"/><rect x="-4" y="-4" width="8" height="8" rx="2" fill="#FF3B55" opacity="0" style="animation:k113def8 6.0s linear 0.0s infinite both"/><rect x="-4" y="-4" width="8" height="8" rx="2" fill="#FF3B55" opacity="0" style="animation:kfbb0567 6.0s linear 0.0s infinite both"/></svg>